<?xml version="1.0" encoding="UTF-8"?>
<svg xmlns="http://www.w3.org/2000/svg" xmlns:xlink="http://www.w3.org/1999/xlink" width="12pt" height="12pt" viewBox="0 0 12 12" version="1.1">
<g id="surface1">
<path style=" stroke:none;fill-rule:evenodd;fill:rgb(100%,100%,100%);fill-opacity:1;" d="M 2.644531 2.644531 C 2.839844 2.453125 3.160156 2.453125 3.355469 2.644531 L 6 5.292969 L 8.644531 2.644531 C 8.839844 2.453125 9.15625 2.453125 9.351562 2.644531 C 9.546875 2.839844 9.546875 3.160156 9.351562 3.355469 L 6.707031 6 L 9.351562 8.644531 C 9.546875 8.839844 9.546875 9.15625 9.351562 9.351562 C 9.15625 9.546875 8.839844 9.546875 8.644531 9.351562 L 6 6.707031 L 3.355469 9.351562 C 3.160156 9.546875 2.84375 9.546875 2.648438 9.351562 C 2.453125 9.15625 2.453125 8.839844 2.648438 8.644531 L 5.292969 6 L 2.644531 3.355469 C 2.453125 3.160156 2.453125 2.839844 2.644531 2.644531 Z M 2.644531 2.644531 "/>
</g>
</svg>
