<svg width="23" height="20" viewBox="0 0 23 20" fill="none" xmlns="http://www.w3.org/2000/svg">
<path fill-rule="evenodd" clip-rule="evenodd" d="M12.3878 18.5129C11.8353 18.8311 11.1649 18.8291 10.6141 18.5081C8.62818 17.3505 3.85894 14.2518 2.13208 10.3044C1.07002 7.89998 1.18266 3.99686 3.74127 2.21822C4.88313 1.29398 6.33553 0.868865 7.78222 1.03543C9.22891 1.20199 10.5872 1.83922 11.4999 3C12.4125 1.83922 13.7018 1.20199 15.1485 1.03543C16.5952 0.868865 18.0476 1.29398 19.1895 2.21822C21.8125 3.99686 21.9251 7.88351 20.8952 10.3044C19.2165 14.2573 14.3907 17.3591 12.3878 18.5129Z" stroke="white" stroke-width="2" stroke-linecap="round" stroke-linejoin="round"/>
<path d="M17.5 5.00024C18.4345 5.65802 18.8391 7.62403 18.1648 9.00024" stroke="white" stroke-width="2" stroke-linecap="round" stroke-linejoin="round"/>
</svg>
